<svg width="117" height="98" viewBox="0 0 117 98" fill="none" xmlns="http://www.w3.org/2000/svg">
<path d="M58.8295 97.765C57.0195 97.695 55.4995 97.155 54.2595 95.975C53.7995 95.535 53.3795 95.055 52.9595 94.565C36.1495 75.345 19.3395 56.125 2.53949 36.895C2.11949 36.415 1.67949 35.945 1.30949 35.435C-0.480509 33.105 -0.430506 29.845 1.42949 27.575C1.83949 27.085 2.26949 26.615 2.71949 26.165C10.2095 18.435 17.6995 10.705 25.1895 2.97501C25.6395 2.51501 26.0695 2.04501 26.5495 1.62501C28.9595 -0.544994 32.6295 -0.544989 35.0395 1.64501C35.6595 2.18501 36.2095 2.79501 36.7695 3.37501L52.5795 19.675C53.1495 20.265 53.7195 20.855 54.3095 21.405C56.6795 23.615 60.3095 23.715 62.7995 21.635C63.4195 21.095 63.9995 20.515 64.5495 19.905C69.6895 14.595 74.8395 9.29501 79.9795 3.98501C80.5495 3.39501 81.1095 2.78501 81.7095 2.25501C84.1495 -0.0449886 87.9595 -0.0549929 90.4095 2.23501C90.8795 2.65501 91.3195 3.12501 91.7595 3.58501C99.1895 11.245 106.619 18.905 114.039 26.575C114.359 26.905 114.679 27.225 114.979 27.565C117.229 29.905 117.369 33.555 115.309 36.065C114.959 36.495 114.619 36.905 114.24 37.315C97.7495 56.205 81.2495 75.095 64.7495 93.985C64.2095 94.605 63.6795 95.235 63.0995 95.815C61.9495 96.955 60.4295 97.645 58.8095 97.755L58.8295 97.765Z" fill="black"/>
</svg>
