<svg width="805" height="153" viewBox="0 0 805 153" fill="none" xmlns="http://www.w3.org/2000/svg">
<path d="M58.8295 125.943C57.0195 125.873 55.4995 125.333 54.2595 124.153C53.7995 123.713 53.3795 123.233 52.9595 122.743C36.1495 103.523 19.3395 84.3027 2.53949 65.0727C2.11949 64.5927 1.67949 64.1228 1.30949 63.6128C-0.480509 61.2828 -0.430506 58.0228 1.42949 55.7528C1.83949 55.2628 2.26949 54.7927 2.71949 54.3427C10.2095 46.6127 17.6995 38.8827 25.1895 31.1527C25.6395 30.6927 26.0695 30.2227 26.5495 29.8027C28.9595 27.6327 32.6295 27.6327 35.0395 29.8227C35.6595 30.3627 36.2095 30.9727 36.7695 31.5527L52.5795 47.8527C53.1495 48.4427 53.7195 49.0327 54.3095 49.5827C56.6795 51.7927 60.3095 51.8927 62.7995 49.8127C63.4195 49.2727 63.9995 48.6927 64.5495 48.0827C69.6895 42.7727 74.8395 37.4727 79.9795 32.1627C80.5495 31.5727 81.1095 30.9627 81.7095 30.4327C84.1495 28.1327 87.9595 28.1227 90.4095 30.4127C90.8795 30.8327 91.3195 31.3027 91.7595 31.7627C99.1895 39.4227 106.619 47.0828 114.039 54.7528C114.359 55.0828 114.679 55.4027 114.979 55.7427C117.229 58.0827 117.369 61.7327 115.309 64.2427C114.959 64.6727 114.62 65.0827 114.24 65.4927C97.7495 84.3827 81.2495 103.273 64.7495 122.163C64.2095 122.783 63.6795 123.413 63.0995 123.993C61.9495 125.133 60.4295 125.823 58.8095 125.933L58.8295 125.943Z" fill="black"/>
<path d="M538.079 94.0328V39.5728C538.079 38.6628 538.119 37.7528 538.149 36.8428C538.239 36.4828 538.529 36.2128 538.879 36.1328C539.329 36.0928 539.789 36.0428 540.239 36.0428H555.289C555.569 36.0428 555.839 36.0428 556.109 36.0628C556.959 36.1028 557.309 36.4128 557.339 37.1828C557.369 37.9528 557.359 38.8228 557.389 39.6428C557.409 40.1928 557.469 40.7328 557.509 41.2728C557.509 41.4628 558.009 41.6528 558.179 41.5428C558.869 41.0828 559.529 40.6028 560.209 40.1628C565.149 36.8128 570.899 34.8728 576.859 34.5628C589.939 33.8728 600.249 39.0628 608.069 49.3828C611.699 54.1828 613.949 59.6328 615.179 65.5228C615.909 68.9128 616.239 72.3828 616.169 75.8528C615.959 83.1728 614.289 90.1328 610.629 96.5228C604.999 106.373 596.509 112.283 585.459 114.623C581.519 115.423 577.469 115.563 573.479 115.023C569.119 114.463 564.939 112.933 561.259 110.523C560.489 110.033 559.739 109.523 558.969 109.033C558.719 108.893 558.409 108.983 558.269 109.233C558.229 109.313 558.199 109.393 558.199 109.483C558.179 110.393 558.159 111.303 558.159 112.213V150.533C558.129 152.063 557.959 152.263 556.429 152.263H539.459C538.419 152.223 538.109 151.953 538.079 151.003C538.059 150.453 538.059 149.913 538.059 149.363V94.0528L538.079 94.0328ZM558.199 74.9628V85.3428C558.189 86.1628 558.469 86.9628 558.989 87.6028C560.889 90.0628 563.289 92.0928 566.039 93.5528C571.109 96.1928 576.449 96.8728 581.929 95.2828C587.909 93.5528 591.969 89.5828 594.389 83.8628C595.709 80.6528 596.279 77.1728 596.059 73.7028C595.899 69.4928 594.569 65.4028 592.219 61.9028C589.449 57.8128 585.679 55.1228 580.799 54.0428C578.209 53.4928 575.529 53.4528 572.919 53.9328C567.319 54.9228 562.729 57.7028 559.079 62.0628C558.479 62.7528 558.159 63.6428 558.189 64.5528C558.219 68.0228 558.189 71.4928 558.189 74.9528L558.199 74.9628Z" fill="black"/>
<path d="M514.919 74.9932V110.563C514.919 113.843 515.249 113.743 511.869 113.743H497.639C495.769 113.743 495.629 113.563 495.579 111.723C495.549 110.633 495.499 109.543 495.429 108.453C495.429 108.353 495.169 108.213 495.019 108.203C494.839 108.213 494.669 108.283 494.529 108.403C494.149 108.663 493.789 108.943 493.429 109.213C487.739 113.463 481.319 115.363 474.239 115.303C462.569 115.203 450.239 109.253 443.219 97.7532C439.879 92.2932 437.789 86.1532 437.119 79.7832C436.279 72.5032 437.269 65.1332 439.989 58.3232C442.499 51.8132 446.729 46.1032 452.229 41.8132C457.069 38.0232 462.549 35.5832 468.629 34.7832C477.539 33.6232 485.879 35.2832 493.339 40.5232C493.859 40.8832 494.399 41.2232 494.949 41.5332C495.039 41.5832 495.299 41.4632 495.379 41.3532C495.489 41.2132 495.549 41.0332 495.559 40.8632C495.589 40.1332 495.599 39.4032 495.599 38.6732C495.599 36.0932 495.569 36.0332 498.119 36.0332H512.349C512.979 36.0332 513.619 36.0832 514.239 36.1932C514.489 36.2832 514.699 36.4632 514.809 36.7032C514.899 36.9632 514.939 37.2332 514.909 37.5032C514.909 38.5032 514.929 39.5132 514.929 40.5132L514.909 74.9832L514.919 74.9932ZM494.789 74.9632V64.5832C494.819 63.6732 494.509 62.7832 493.909 62.0832C491.009 58.5332 487.119 55.9132 482.729 54.5832C479.409 53.5432 475.879 53.3532 472.469 54.0132C467.489 55.0032 463.629 57.7432 460.789 61.9232C458.949 64.6532 457.739 67.7532 457.249 71.0132C456.459 75.9132 457.009 80.6532 459.189 85.1332C461.379 89.8232 465.389 93.4132 470.289 95.0732C472.629 95.8632 475.089 96.2032 477.559 96.0632C484.349 95.8032 489.789 92.8732 494.029 87.6232C494.559 86.9932 494.829 86.1832 494.809 85.3632C494.809 81.9032 494.809 78.4331 494.809 74.9731L494.789 74.9632Z" fill="black"/>
<path d="M706.6 74.8434V110.143C706.6 110.963 706.599 111.783 706.579 112.603C706.559 113.423 706.229 113.693 705.369 113.743C705.099 113.743 704.819 113.763 704.549 113.763H689.239C688.969 113.763 688.69 113.763 688.42 113.733C687.76 113.693 687.379 113.363 687.379 112.733C687.349 111.553 687.349 110.363 687.319 109.183C687.319 108.913 687.27 108.643 687.17 108.393C687.06 108.263 686.88 108.203 686.71 108.233C686.23 108.493 685.78 108.783 685.34 109.103C683.37 110.593 681.239 111.843 678.989 112.833C675.469 114.363 671.68 115.193 667.85 115.293C656.78 115.583 647.31 111.793 639.59 103.843C635.26 99.3834 632.36 94.0334 630.53 88.1134C628.77 82.4334 628.18 76.4633 628.77 70.5533C629.35 63.9033 631.479 57.4734 634.999 51.7934C638.109 46.7134 642.399 42.4634 647.509 39.4034C652.519 36.3634 658.24 34.6834 664.1 34.5134C669.85 34.3434 675.34 35.3534 680.53 37.9034C682.09 38.6634 683.579 39.5434 684.989 40.5434C685.509 40.8934 686.049 41.2333 686.579 41.5833C686.759 41.6933 687.22 41.4934 687.23 41.2934C687.26 40.9434 687.309 40.5734 687.319 40.2034C687.319 39.2034 687.32 38.2033 687.35 37.1933C687.35 36.5333 687.709 36.1534 688.309 36.1134C688.669 36.0934 689.04 36.0734 689.4 36.0734H704.439C704.979 36.0834 705.519 36.1534 706.059 36.2634C706.229 36.3234 706.36 36.4534 706.42 36.6234C706.51 36.8734 706.559 37.1433 706.569 37.4133C706.589 38.2333 706.59 39.0534 706.59 39.8734C706.59 51.5334 706.59 63.2034 706.59 74.8634L706.6 74.8434ZM686.48 74.8434V64.4634C686.48 63.5534 686.15 62.6633 685.53 61.9933C681.93 57.7233 677.42 54.9733 671.92 53.9933C668.57 53.3933 665.209 53.4733 661.939 54.6033C657.139 56.2633 653.629 59.4433 651.319 63.9133C648.059 70.2433 647.659 76.8234 650.179 83.4834C652.339 89.1634 656.31 93.0834 662.09 95.1034C664.34 95.8534 666.72 96.1834 669.09 96.0634C675.87 95.8234 681.339 92.9834 685.609 87.7534C686.189 87.0534 686.5 86.1634 686.48 85.2434C686.47 81.7634 686.48 78.2933 686.48 74.8333V74.8434Z" fill="black"/>
<path d="M376.329 113.353C376.169 113.473 375.989 113.563 375.809 113.633C375.449 113.703 375.089 113.733 374.719 113.743H358.839C358.479 113.743 358.119 113.673 357.769 113.573C357.609 113.503 357.489 113.383 357.419 113.223C357.319 112.973 357.269 112.703 357.259 112.433C357.239 111.253 357.239 110.063 357.209 108.873C357.209 108.613 357.179 108.263 356.839 108.243C356.579 108.243 356.329 108.323 356.109 108.453C355.809 108.653 355.509 108.873 355.229 109.103C349.469 113.433 342.979 115.393 335.799 115.313C323.129 115.153 311.429 108.493 304.809 97.6931C301.259 91.9131 299.149 85.3731 298.649 78.6131C298.069 71.8631 299.019 65.0631 301.449 58.7331C303.779 52.5531 307.629 47.0631 312.659 42.7831C317.719 38.4831 323.529 35.7031 330.089 34.8231C338.999 33.6131 347.339 35.2531 354.839 40.4531C355.439 40.8631 356.059 41.2331 356.689 41.5731C356.769 41.6231 357.109 41.4431 357.119 41.3531C357.189 40.4431 357.239 39.5331 357.239 38.6231C357.239 36.0331 357.199 36.0431 359.789 36.0331H374.019C374.479 36.0331 374.929 36.0331 375.399 36.0731C376.169 36.1231 376.469 36.4631 376.499 37.3231V39.2331C376.499 63.0431 376.499 86.8631 376.499 110.673C376.479 111.553 376.579 112.473 376.309 113.333L376.329 113.353ZM356.389 74.8031C356.389 71.5231 356.329 68.2231 356.419 64.9631C356.459 63.6831 355.979 62.4431 355.069 61.5331C350.199 56.1631 344.199 53.4331 336.899 53.6831C332.859 53.8031 328.979 55.3131 325.919 57.9731C323.619 59.9231 321.799 62.3831 320.599 65.1631C318.129 70.8231 317.779 76.6331 319.729 82.4831C321.749 88.5231 325.709 92.8031 331.779 95.0031C334.109 95.8131 336.579 96.1731 339.049 96.0431C345.629 95.8031 350.969 93.1131 355.209 88.1231C356.009 87.2431 356.439 86.0931 356.409 84.9031C356.339 81.5331 356.379 78.1531 356.379 74.7931L356.389 74.8031Z" fill="black"/>
<path d="M741.899 36.1826C742.419 37.2526 742.859 38.1526 743.279 39.0526C749.649 52.5826 756.029 66.1026 762.399 79.6326C762.779 80.4426 763.009 81.3626 763.729 81.9826C764.309 81.7226 764.419 81.1826 764.649 80.7026C765.929 77.7726 767.199 74.8526 768.459 71.9226C773.249 60.8826 778.039 49.8426 782.829 38.8026C783.179 37.9726 783.589 37.1526 784.009 36.2726C784.539 36.1626 785.079 36.0926 785.619 36.0426C787.169 36.0126 788.729 36.0426 790.269 36.0426H802.589C803.219 36.0626 803.849 36.1226 804.479 36.2126C804.649 36.2126 804.779 36.3626 804.779 36.5326C804.779 36.5626 804.779 36.5926 804.759 36.6226C804.629 37.1426 804.469 37.6626 804.269 38.1626C802.169 42.9126 800.069 47.6726 797.949 52.4126C783.579 84.7426 769.199 117.073 754.829 149.393C754.429 150.303 754.109 151.273 753.419 152.123C752.999 152.153 752.549 152.233 752.099 152.233H734.309C733.949 152.233 733.579 152.183 733.229 152.103C733.079 152.013 732.979 151.853 732.979 151.683C733.069 151.243 733.209 150.813 733.399 150.393C734.619 147.643 735.839 144.893 737.079 142.153L751.939 108.933C752.289 108.183 752.589 107.433 752.929 106.683C753.169 106.183 753.159 105.593 752.899 105.103C752.499 104.283 752.109 103.453 751.709 102.633C741.529 81.4226 731.359 60.2126 721.179 39.0026C720.829 38.2626 720.519 37.5126 720.209 36.7526C720.129 36.5726 720.429 36.1426 720.619 36.1226C720.979 36.0926 721.349 36.0426 721.709 36.0426C727.819 36.0426 733.939 36.0426 740.049 36.0426C740.599 36.0426 741.129 36.1326 741.889 36.1926L741.899 36.1826Z" fill="black"/>
<path d="M273.919 86.1426C274.329 86.4226 274.799 86.7026 275.219 87.0326C279.719 90.6126 284.389 93.9526 288.719 97.7026C288.779 97.7526 288.789 97.8626 288.819 97.9426C288.789 98.1226 288.739 98.2926 288.659 98.4526C284.459 104.243 279.269 108.863 272.709 111.823C268.539 113.693 264.079 114.813 259.519 115.123C257.059 115.313 254.599 115.333 252.139 115.193C235.389 114.293 221.079 102.803 216.579 86.6426C215.209 81.9926 214.689 77.1326 215.039 72.3026C216.179 58.0526 222.689 47.0126 235.079 39.6826C240.829 36.2826 247.149 34.6626 253.849 34.4626C261.179 34.1726 268.449 35.9226 274.849 39.5126C279.089 41.8626 282.839 45.0026 285.899 48.7626C286.129 49.0426 286.329 49.3526 286.499 49.6726C286.559 49.8426 286.529 50.0326 286.429 50.1826C286.149 50.5326 285.829 50.8626 285.499 51.1726C281.729 54.6326 277.959 58.0726 274.189 61.5026C273.839 61.8126 273.499 62.1026 273.149 62.3926C272.849 62.6226 272.419 62.5726 272.179 62.2726C271.749 61.8026 271.339 61.3126 270.909 60.8426C269.439 59.2226 267.739 57.8126 265.879 56.6526C258.879 52.3026 249.799 52.7626 243.479 57.5026C239.779 60.2426 237.119 64.1626 235.929 68.6126C234.619 73.2126 234.749 78.0926 236.299 82.6226C239.269 91.3726 246.819 95.5726 253.909 96.0426C261.309 96.5226 267.209 93.6726 271.999 88.1826C272.539 87.5726 273.039 86.9326 273.579 86.3126C273.649 86.2526 273.759 86.2326 273.919 86.1526V86.1426Z" fill="black"/>
<path d="M200.21 42.4127C196.98 47.3227 194.219 52.2627 190.949 56.8727C190.909 56.9327 190.779 56.9427 190.579 57.0127C189.949 56.6327 189.259 56.2127 188.569 55.7927C185.949 54.1127 183.039 52.9527 179.979 52.3727C177.189 51.8327 174.319 51.9427 171.579 52.7227C170.519 52.9927 169.519 53.4627 168.629 54.1027C168.049 54.5427 167.539 55.0627 167.099 55.6427C165.769 57.5427 166.03 59.7327 167.68 61.3527C168.4 62.0527 169.24 62.6327 170.15 63.0527C171.47 63.6627 172.799 64.2727 174.159 64.7827C176.639 65.7027 179.139 66.5527 181.629 67.4327C184.299 68.3527 186.909 69.4727 189.419 70.7627C191.369 71.7627 193.209 72.9627 194.909 74.3527C199.579 78.2327 202.099 83.2027 202.469 89.2727C202.639 92.2027 202.489 95.1027 201.569 97.9227C200.249 101.933 197.81 105.483 194.52 108.143C191.16 110.913 187.32 112.753 183.15 113.933C179.36 114.963 175.429 115.413 171.509 115.273C162.829 115.033 154.829 112.533 147.389 108.133C146.059 107.343 144.789 106.453 143.509 105.573C142.779 105.073 142.729 104.743 143.229 103.983C146.019 99.7027 148.809 95.4227 151.609 91.1527C151.759 90.9227 151.95 90.7227 152.16 90.5627C152.31 90.4627 152.489 90.4427 152.649 90.5027C153.109 90.7827 153.55 91.1127 153.99 91.4327C159.67 95.6727 166.069 97.6927 173.139 97.6627C174.509 97.7027 175.88 97.4927 177.18 97.0427C177.95 96.7627 178.699 96.4227 179.409 96.0027C180.029 95.6227 180.589 95.1527 181.079 94.6227C182.929 92.5727 182.939 89.7827 181.139 87.6527C180.429 86.8127 179.559 86.1227 178.599 85.6027C177.409 84.9327 176.179 84.3327 174.919 83.8127C172.549 82.8627 170.139 82.0327 167.749 81.1227C165.449 80.2427 163.159 79.3427 160.889 78.3927C159.209 77.6727 157.59 76.8227 156.05 75.8427C154.49 74.8827 153.05 73.7627 151.74 72.4827C148.82 69.6727 146.939 65.9627 146.419 61.9427C145.379 54.3527 147.619 47.8927 153.079 42.5627C156.479 39.2427 160.6 37.1327 165.12 35.7927C167.66 35.0427 170.28 34.6127 172.93 34.5027C181.14 34.1527 188.849 36.0127 196.169 39.6627C197.209 40.2227 198.23 40.8427 199.21 41.5027C199.57 41.7827 199.9 42.0927 200.21 42.4227V42.4127Z" fill="black"/>
<path d="M399.709 56.8033C399.709 39.2033 399.709 21.6033 399.709 3.99333C399.709 -0.556671 399.219 0.0433333 403.589 0.0133333C407.879 -0.0166667 412.169 0.0133333 416.449 0.0133333C417.269 0.0133333 418.089 0.0433309 418.909 0.0733309C419.379 0.0933309 419.739 0.483336 419.719 0.953336C419.719 0.953336 419.719 0.973335 419.719 0.983335C419.739 1.71333 419.759 2.44333 419.759 3.17333V110.693C419.759 111.423 419.739 112.153 419.709 112.883C419.649 113.243 419.389 113.533 419.049 113.643C418.689 113.693 418.319 113.723 417.959 113.733H401.539C401.179 113.723 400.819 113.683 400.459 113.633C400.099 113.543 399.819 113.253 399.769 112.883C399.739 112.613 399.709 112.343 399.699 112.063V56.8033H399.709Z" fill="black"/>
</svg>
